<?xml version="1.0" standalone="no"?>
<!DOCTYPE svg PUBLIC "-//W3C//DTD SVG 1.1//EN" "http://www.w3.org/Graphics/SVG/1.1/DTD/svg11.dtd" >
<svg xmlns="http://www.w3.org/2000/svg" xmlns:xlink="http://www.w3.org/1999/xlink" version="1.1">
<metadata></metadata>
<defs>
<font id="adventure_time_logoregular" horiz-adv-x="1014" >
<font-face units-per-em="2048" ascent="1638" descent="-410" />
<missing-glyph horiz-adv-x="508" />
<glyph unicode="&#xd;" horiz-adv-x="508" />
<glyph horiz-adv-x="0" />
<glyph horiz-adv-x="0" />
<glyph unicode=" "  horiz-adv-x="508" />
<glyph unicode="&#x09;" horiz-adv-x="508" />
<glyph unicode="&#xa0;" horiz-adv-x="508" />
<glyph unicode="!" horiz-adv-x="672" />
<glyph unicode="&#x22;" horiz-adv-x="672" />
<glyph unicode="#" horiz-adv-x="1336" />
<glyph unicode="$" />
<glyph unicode="%" horiz-adv-x="1610" />
<glyph unicode="&#x26;" horiz-adv-x="1683" />
<glyph unicode="'" horiz-adv-x="346" />
<glyph unicode="(" horiz-adv-x="758" />
<glyph unicode=")" horiz-adv-x="758" />
<glyph unicode="*" horiz-adv-x="1024" />
<glyph unicode="+" />
<glyph unicode="," horiz-adv-x="557" />
<glyph unicode="-" horiz-adv-x="670" />
<glyph unicode="." horiz-adv-x="557" />
<glyph unicode="/" horiz-adv-x="569" />
<glyph unicode="0" />
<glyph unicode="1" />
<glyph unicode="2" />
<glyph unicode="3" />
<glyph unicode="4" />
<glyph unicode="5" />
<glyph unicode="6" />
<glyph unicode="7" />
<glyph unicode="8" />
<glyph unicode="9" />
<glyph unicode=":" horiz-adv-x="557" />
<glyph unicode=";" horiz-adv-x="557" />
<glyph unicode="&#x3c;" />
<glyph unicode="=" />
<glyph unicode="&#x3e;" />
<glyph unicode="?" horiz-adv-x="748" />
<glyph unicode="@" horiz-adv-x="4100" d="M0 472q0 99 128 124q60 0 104 -56q299 0 480 52v16q0 47 -4 148q75 45 180 88v-4q-36 -74 -36 -80v-4l104 28q0 -4 4 -4q0 -104 -44 -104q-80 -54 -80 -80q8 -30 8 -36q60 -4 88 -4h20q15 0 36 -16l-4 -8v-4l28 -44q72 -28 124 -28h276v8h-240q-102 25 -172 68l16 16 l-20 24v4h80q-8 40 -8 80v12q0 67 60 136h392q110 0 276 4q17 -4 60 -4q60 -57 60 -164q0 -19 -8 -72h44v12q0 166 -36 200q-16 8 -16 24l8 4h24q55 0 76 4q38 -4 84 -4h32q44 0 44 -16q-25 -60 -36 -224h116l28 -4q0 138 -72 216l-4 20l8 4h224q42 0 144 -220 q12 -20 16 -20h136q55 137 136 248q70 4 84 4q216 0 216 -20v-4q-112 -109 -112 -132v-96h188v4q0 144 -48 144q-24 24 -24 40v8q0 29 24 44q208 -4 328 -4h272q8 -1 8 -8q-28 -40 -28 -96q4 -52 28 -80v-4q0 -6 -12 -12h-8q-142 68 -176 68q-44 4 -76 4h-8q-26 0 -80 -4 q-4 -54 -4 -80v-24q425 -4 484 -4q172 -74 172 -96v-4q-145 88 -172 88v-4q0 -12 4 -12q-7 -68 -28 -68h-204q-42 30 -140 68q-24 20 -40 20h-28l-8 -4q0 -23 136 -76v-8h-68q-17 21 -76 40l-80 48h-124v-4q19 -28 108 -76v-8h-316v-12h536q177 0 500 4v-8 q-112 -88 -192 -88h-460l-4 -20v-92l108 -8q159 0 252 48h8q28 0 40 -28q-120 -238 -148 -240q-166 80 -468 80h-36q-40 25 -40 48q0 8 52 44q32 44 32 120v44h-180v-8q0 -130 76 -208v-12q0 -16 -136 -16q-37 0 -132 4l-8 12q36 91 36 120v108h-100q-90 -248 -136 -248h-12 q-6 0 -144 248h-88v-4q0 -55 24 -224q-15 -20 -192 -20q-19 4 -56 4l-4 8v4q84 178 84 232h-140q0 -33 32 -228v-12q0 -8 -8 -8h-12q-62 16 -80 16q-10 0 -136 -36h-16q-28 17 -28 24q0 11 72 144v100h-4q-94 0 -368 -4v-56q0 -142 68 -200q4 -7 4 -16q-24 -24 -40 -24 q-91 12 -112 12q-140 -68 -156 -68h-16q-6 0 -12 12v8q0 17 92 140q8 32 8 40v152q-127 -4 -188 -4h-244q-22 -20 -48 -20h-104v-16q28 -45 116 -104q12 -12 12 -76v-12q0 -8 -8 -8q-82 28 -104 28v-4q0 -7 28 -68h-4q-122 49 -160 80v160q-257 64 -500 64q-31 -32 -80 -32 h-4q-111 0 -128 132zM44 508q3 -20 12 -20h8q26 24 76 32l4 8v4q0 28 -24 28q-76 -10 -76 -52zM52 392q21 -28 76 -28q32 4 32 16v12q-8 0 -8 4l-28 -4h-12l-56 12l-4 -8v-4zM176 392q0 -3 12 -12q32 16 32 48l-8 4h-4q-4 0 -32 -36v-4zM372 812q29 92 84 92q100 29 100 176 v20q-110 -32 -120 -32q-8 0 -8 8q44 116 84 116h52q44 0 44 64q48 186 48 252q0 64 -68 104v4q4 0 4 4q151 4 228 4h68q12 0 88 -228q143 -396 196 -460q11 -20 16 -20h4q6 0 16 16v168q0 84 -28 84q-48 23 -48 48v8l20 4h260q152 -55 152 -200q-24 -200 -200 -200 q-45 -4 -104 -4h-160q-34 0 -108 4l-84 264q-106 -4 -168 -4h-4q-20 -52 -68 -272q0 -16 -292 -32q-4 8 -4 12zM700 468q1 -8 8 -8q3 0 44 32q-6 16 -12 16h-4q-22 0 -36 -24v-16zM728 408q0 -6 12 -12q21 0 24 12v4q0 10 -16 12q-18 -8 -20 -16zM752 1208q14 0 36 -4 q45 4 84 4l4 8q-24 70 -64 216q-9 0 -56 -220q-4 0 -4 -4zM760 436q4 -8 4 -12q24 0 32 28q-4 8 -4 12h-16q-8 0 -16 -28zM860 540q58 -68 116 -84q16 -1 16 -8q13 8 24 8h16v8q-61 22 -172 80v-4zM1132 576q47 -4 68 -4h172l40 -4q4 8 4 12q0 68 -16 68q-38 4 -72 4h-28 q-120 0 -168 -76zM1316 1176q0 -166 8 -264h32q57 0 80 108v32q-17 124 -112 124q0 4 -8 4v-4zM1484 1240q13 8 24 8h144q20 -10 20 -32v-4l-28 -32q0 -5 56 -140h4q15 7 72 140q-32 33 -32 40q0 20 44 32h280q29 0 100 20q8 0 8 -44q19 32 44 32h76q4 0 40 -64 q118 -116 148 -136v8q0 120 -24 120q-68 35 -68 48q3 14 24 24q59 -12 72 -12q20 0 68 12q20 -3 20 -20h4q11 24 104 24h196q38 0 68 -80v-44q0 -8 -12 -8q-48 36 -60 36h-60q-4 -185 -4 -264q28 -30 28 -44l-16 -12q-66 12 -88 12q-41 -36 -64 -36h-8q-10 0 -12 16l40 84 v240q-45 8 -64 8q-48 -33 -48 -40v-220q0 -32 -68 -68h-12q-15 51 -80 100q-18 18 -104 80q0 -4 -4 -4l4 -28v-36q0 -22 4 -56q0 -33 -128 -64h-8q-8 0 -8 8q0 6 48 72q4 74 4 124v32q0 22 4 56q-49 84 -60 88q-6 -120 -24 -120q-13 6 -40 60q-24 12 -84 12h-12l-4 -28v-24 l4 -28h44q9 0 16 -4q7 4 16 4h12q48 0 48 -20q-21 -64 -36 -64q-51 24 -100 24v-100l40 -4h16q38 0 104 40h4q8 -18 8 -52v-12q-35 -52 -60 -52h-12q-288 0 -288 20q0 9 44 44q4 8 4 12q4 132 4 212h-4q-161 -277 -188 -308h-4q-26 0 -76 188q-68 192 -100 192 q-20 21 -20 32zM1584 456q245 -4 368 -4h320v12h-208q-11 0 -112 68q-29 20 -44 20h-4q0 -31 -16 -36q-9 0 -40 40h-164v-12l96 -76v-4h-196v-8zM1584 568h280v4q-42 80 -200 80h-76l-4 -20v-64zM2412 456h32q0 8 -8 8h-24v-8zM2640 464q4 -8 4 -12h16q8 0 8 8v4h-28z M2844 456h44v8h-44v-8zM2932 1248q0 7 20 12q156 -3 156 -20q0 -5 -40 -36v-176q0 -92 24 -92h8q52 6 52 92l-4 28v96q0 23 -4 64q12 36 44 36q161 12 272 12q92 -21 92 -88q0 -41 -68 -100q44 -87 80 -124h4q4 67 4 104q0 168 -24 168q-20 10 -20 32q10 7 32 12 q84 -4 136 -4h76q19 0 64 24q16 -6 16 -12q-4 -70 -4 -84q8 -59 8 -88v-12q0 -8 -8 -8h-4q-99 100 -124 100h-16q-24 -2 -24 -12v-24q0 -44 20 -44h84q28 -18 28 -40q-35 -38 -48 -44q-54 4 -80 4v-72l4 -20h96q25 0 64 36q24 0 24 -16q-45 -112 -64 -112q-87 0 -296 4 q-29 27 -116 216h-8v-156q24 -28 24 -44t-68 -16q-96 2 -96 16l4 20l-76 -32h-4q-6 0 -16 16v20h-4q-49 -27 -76 -28q-120 39 -120 120l-4 24q4 35 4 60v48l4 24q0 4 -4 4q0 4 4 12q0 77 -28 100zM3256 1036q0 -46 4 -140h4q4 0 16 20l-4 20v248h-8q-12 -31 -12 -56v-92z M3388 1080h8q60 78 60 96q-26 12 -56 12q-8 -1 -8 -8v-60z" />
<glyph unicode="A" horiz-adv-x="1608" d="M-47 15q24 0 43 -11v11q523 18 523 53q106 381 138 459q91 0 321 11q34 0 138 -331q0 -128 182 -128h267l21 10q0 83 -96 171q-134 206 -438 939q-64 224 -138 224h-43q-189 0 -470 -10l-21 -11q117 -80 117 -171v-21q0 -152 -74 -395q0 -139 -139 -139q-168 0 -214 -192 v-10q32 0 214 42h21v-64q0 -155 -96 -224q-256 -72 -256 -213zM700 708q0 24 85 363h32q97 -307 118 -341q0 -22 -21 -22h-214z" />
<glyph unicode="B" horiz-adv-x="1374" d="M13 24v29q10 31 217 129l10 49v957q0 102 -168 148l-39 50v29l69 10h128q212 0 395 10q465 0 612 -316q0 -19 19 -69q0 -136 -197 -296h-10v-30q169 -59 277 -256q6 -79 19 -79q-49 -178 -237 -296q-177 -89 -296 -89h-385q-142 0 -384 10q-20 10 -30 10zM556 1267 q0 -464 39 -464h79q177 0 217 247q0 172 -315 227q-20 0 -20 -10zM576 162h19q356 38 356 247v9q-73 208 -208 208h-138q-10 -77 -29 -464z" />
<glyph unicode="C" horiz-adv-x="1325" d="M38 789q25 -226 39 -226q0 -200 266 -414q106 -128 808 -128q59 0 59 59v364q-67 10 -89 20q-7 0 -79 -29q0 -114 -118 -119h-39q-22 0 -40 10q-17 -10 -39 -10q-335 45 -335 414v10q0 423 365 423q64 -10 128 -10h49q12 0 88 -98h50q69 0 69 88v197q0 89 -69 89h-266 q-266 0 -522 -108q-325 -229 -325 -532z" />
<glyph unicode="D" horiz-adv-x="1584" d="M30 1371q19 -56 155 -144q110 0 110 -232v-33q0 -227 11 -619v-11q-221 -172 -265 -299q0 -22 22 -22h254q691 0 863 99q353 230 353 575v100q0 74 -55 232q-243 409 -497 409h-675l-132 -11q0 11 -45 11q-99 0 -99 -55zM671 1183v11h11q69 0 199 -44q221 -122 221 -509 q-96 -376 -254 -376h-122q-35 0 -44 376q11 0 11 11q-22 213 -22 531z" />
<glyph unicode="E" horiz-adv-x="1216" d="M50 1310q10 0 10 -10q122 -120 122 -244q0 -10 -10 -31q10 -68 10 -111v-448l-10 -20q10 0 10 -10v-20q0 -23 -10 -41q-51 -10 -51 -61v-213q0 -92 71 -92h346q139 0 366 -10q20 10 30 10q89 0 203 356v10q0 15 -40 31q-46 0 -143 -102q-188 -10 -274 -10h-51 q-81 0 -81 61v233h213l21 -10q40 0 172 153v30q-81 92 -132 92h-244q-40 25 -40 40v183q0 26 61 31h81q74 0 386 -315q41 20 41 61l-31 284q0 71 11 265l-41 30h-10q-132 -61 -163 -61h-620l-51 10q-147 -13 -152 -71z" />
<glyph unicode="F" horiz-adv-x="1330" d="M64 64q27 -64 460 -64h300v21l-129 236v53q0 91 -10 289h64q115 0 278 -75h21q22 0 97 204q0 74 -139 74q-51 0 -107 -10q-67 10 -150 10h-43q-19 0 -21 22v246h224q137 0 225 -235h21q48 0 97 502q0 81 -33 86h-21q-120 -43 -310 -75q-56 11 -107 11h-54q-56 0 -96 -11 q-56 11 -107 11h-407l-53 -11v-11q171 -358 171 -385q0 -179 -21 -738q-150 -142 -150 -150z" />
<glyph unicode="G" horiz-adv-x="1402" d="M56 764q11 -231 33 -231q0 -267 176 -407q190 -121 374 -121q223 14 231 44q192 0 319 264h33q0 -143 66 -143t66 66v363q0 66 -66 66h-528q-77 0 -77 -77v-22q0 -30 22 -66q264 -80 264 -99v-11q-91 -143 -286 -143h-55q-176 0 -231 319v77q0 146 55 341q41 198 297 198 q63 0 132 -55l-22 -77v-11q77 -22 132 -22h110q55 0 132 22v55q-36 63 -77 88q0 203 -451 253h-11q-107 -22 -121 -22q-223 -44 -385 -242q-80 0 -132 -407z" />
<glyph unicode="H" horiz-adv-x="1623" d="M51 105q37 -94 168 -94h306l52 -11q29 24 43 95q-11 116 -11 200v337q0 21 95 31q113 -10 137 -21q18 11 42 11h63q21 0 21 -21v-442l-74 -85q53 -105 106 -105q58 11 94 11h295q106 0 148 105q-16 24 -95 74q-74 0 -74 600q0 205 21 389q116 90 116 169q0 84 -84 84 h-390q-73 0 -73 -84q0 -11 21 -242v-106l10 -73l-31 -21h-337q-19 0 -21 21v210q0 34 10 53q84 105 84 137v31q0 74 -73 74h-464q-71 0 -84 -84q0 -37 42 -106q105 0 105 -389v-21q0 -564 -63 -632q-105 -63 -105 -95z" />
<glyph unicode="I" horiz-adv-x="707" d="M40 79q0 -35 60 -60l272 70q46 0 151 -30q51 23 51 51l-71 423q0 616 81 866q-23 30 -61 30h-382l-51 -10v-40q81 -51 81 -444v-614z" />
<glyph unicode="J" horiz-adv-x="1259" d="M-10 397q136 -396 543 -396q385 25 385 102q159 127 159 260l-11 68v646q0 31 22 68q114 87 114 135v80q0 56 -46 68q-277 11 -441 11h-204q-68 0 -68 -68v-23q0 -31 23 -68q203 0 203 -158q0 -155 12 -555q0 -201 -125 -272h-102q-17 0 -45 57q0 130 -227 283h-11 q-181 -116 -181 -215v-23z" />
<glyph unicode="K" horiz-adv-x="1509" d="M41 48q0 -17 58 -39l234 58h49q32 0 137 -19q29 0 39 39q-59 344 -59 380v20l166 -108q441 -302 487 -312h341l20 10q-146 176 -156 244q-285 129 -663 380v10q22 34 468 234q107 44 107 409v20q0 48 -39 58q-93 -75 -146 -195q-5 -44 -565 -292h-10v9q0 193 58 381 q-14 29 -29 29h-10q-85 0 -195 10l-48 -10l-59 10l-88 -10l-19 10l-29 -39q78 -81 78 -332v-682q-25 -85 -127 -254v-19z" />
<glyph unicode="L" horiz-adv-x="1140" d="M58 286q8 -31 55 -86q84 16 109 16h31q223 0 469 -109q160 -102 179 -102h24q27 0 46 94q34 158 180 445v15q0 43 -39 55l-62 -47q-108 -125 -172 -125h-266q-78 0 -78 86q8 102 8 164v422l63 70q164 119 164 187v8q0 39 -24 47h-23q-268 -94 -344 -94h-125 q-172 0 -172 -70v-16q102 -117 102 -171v-648q-125 -131 -125 -141z" />
<glyph unicode="M" horiz-adv-x="1813" d="M51 30l18 -26l88 9h248q66 0 71 35q-27 133 -44 381q8 0 8 9q-8 0 -8 8v169q0 37 -9 97q9 9 9 71v44h8q40 -64 239 -478q155 -354 186 -354q14 0 62 35q188 520 328 832h26q18 -97 18 -221v-354q0 -82 -62 -248l36 -26q52 0 407 9q17 0 17 17q0 29 -44 89q-97 37 -97 779 v177q0 66 97 203q89 62 89 107v8l-9 18q-191 9 -283 9h-204q-24 0 -133 -230q-197 -476 -239 -540h-17q-14 49 -80 177q-241 584 -292 584q-58 0 -89 -9q-49 9 -71 9q-42 0 -88 -9q-33 9 -80 9h-53l-26 -18v-8q124 -206 124 -337v-345q0 -396 -151 -682z" />
<glyph unicode="N" horiz-adv-x="1286" d="M63 1302l146 -300q0 -108 -16 -739q-122 -193 -122 -244v-8l33 -8q341 118 341 211v195q0 77 -17 211q0 14 17 16q253 -227 332 -333q104 -85 155 -268h24q187 114 187 260v293q0 263 8 698q-18 138 -73 138q-124 -33 -171 -33h-16q-26 0 -187 33q-56 -39 -56 -81 q0 -19 227 -195q8 -353 16 -382h-16q-284 296 -422 504q-25 162 -114 162h-146q-18 0 -33 -8q-58 -20 -97 -122z" />
<glyph unicode="O" horiz-adv-x="1141" d="M37 636q0 -29 8 -76q110 -548 422 -548q34 17 93 17q84 0 202 -9l43 17q261 405 261 650q0 88 -67 438q-104 304 -329 304q-137 0 -380 -152q-253 -339 -253 -641zM400 527q17 252 17 371q54 76 135 76h8q126 -38 126 -186v-143q0 -133 -160 -245q-126 95 -126 127z" />
<glyph unicode="P" horiz-adv-x="934" d="M78 72q0 -66 254 -66q180 0 180 57l-57 148v8l8 16q-8 0 -8 9v360q434 279 434 533q0 27 -16 98q-115 197 -262 197h-66q-231 -16 -287 -16q-114 0 -114 -58v-1147q-66 -68 -66 -131v-8zM463 899v263l41 8q131 -13 131 -58q-51 -213 -172 -213z" />
<glyph unicode="Q" horiz-adv-x="1122" d="M87 456q0 -28 40 -103q257 -341 396 -341q70 0 214 71q8 0 48 -71q60 0 254 135q0 24 -95 159q55 127 55 301q0 196 -95 508q-228 317 -404 317q-40 0 -96 -16q-317 -178 -317 -444q8 -233 8 -270q-8 -207 -8 -246zM325 726v56q0 53 48 126q53 167 166 167q64 0 87 -87 q72 -24 88 -310q-8 -43 -8 -63v-8h-8l-24 16q-87 -101 -87 -143v-24q0 -4 16 -24v-15q-127 8 -127 31q-151 84 -151 278z" />
<glyph unicode="R" horiz-adv-x="1333" d="M76 156q28 -50 161 -50h272q38 0 80 40q0 33 -80 151q10 68 10 111v373l10 20h10q312 -705 433 -705h272q60 0 60 60v41q0 80 -70 120q-91 121 -161 121q-124 134 -252 393q221 216 221 332q0 191 -322 272q-89 0 -402 -10q-161 0 -161 -71v-1057q-66 -65 -81 -141z M519 881q10 0 10 10v292l50 10q151 -12 151 -50v-20q0 -55 -191 -272h-10q0 10 -10 30z" />
<glyph unicode="S" horiz-adv-x="1218" d="M60 1072q30 -131 30 -139q82 -317 565 -317q119 -60 119 -149v-79q-42 -159 -159 -159h-69q-60 35 -60 99q0 38 -198 159h-20q-168 -79 -168 -139v-20q0 -198 386 -307h228q382 0 437 268l-10 59v30q0 35 10 89q-20 50 -20 70q-122 257 -307 257h-90q-129 0 -178 20 q-179 60 -179 228v40q0 188 258 188q171 0 228 -79q0 -109 139 -109q99 116 99 198q-253 149 -317 149h-79q-273 0 -437 -79q-208 -134 -208 -278z" />
<glyph unicode="T" horiz-adv-x="1537" d="M33 1112q0 -115 50 -130h10q165 160 220 160h280l30 -20q0 -245 10 -380q-10 -130 -10 -360q0 -25 -10 -80q-150 -213 -160 -250q5 -28 50 -40q220 130 310 130q32 0 140 -20q35 0 60 60q-110 112 -110 310q10 546 10 650l50 10h90q257 0 380 -160h10l30 120v10 q-22 300 -140 300h-120q-92 0 -170 10q-53 -10 -120 -10q-52 0 -90 10q-55 -10 -80 -10q-152 0 -470 10l-70 -10q-17 10 -40 10h-10q-103 -33 -130 -260v-60z" />
<glyph unicode="U" horiz-adv-x="1348" d="M60 1375q87 -66 87 -283q-14 -454 -22 -565q14 -125 33 -173q190 -315 402 -315l260 86q0 -81 87 -119q239 130 272 163q-11 274 -11 434v402q0 84 76 228v120q0 24 -11 43q0 11 -141 11q-304 0 -304 -174v-228q0 -211 22 -369q0 -247 -131 -326h-54q-109 0 -109 315 q0 27 11 163q-11 187 -11 304q0 11 11 33q-11 0 -11 11v97q131 106 131 120q0 49 -489 76q0 -14 -98 -22v-32z" />
<glyph unicode="V" horiz-adv-x="1442" d="M-33 1351l75 -85q88 0 309 -618q160 -581 245 -640q53 0 107 85q495 896 703 1173q-13 160 -117 160h-235q-162 0 -213 -96q0 -43 86 -139v-10q-46 -190 -224 -469h-32q-128 304 -182 469v10q96 104 96 118q-37 106 -117 106h-341q-160 0 -160 -42v-22z" />
<glyph unicode="W" horiz-adv-x="2005" d="M-25 1363q68 -86 76 -86q67 -27 249 -595q159 -682 227 -682h32l422 833l422 -833h33q16 0 65 76q121 462 205 703q92 419 281 584v22q0 35 -140 43h-282q-86 0 -108 -108v-22q76 -81 76 -97q0 -51 -151 -487h-22q-87 100 -195 465q0 33 76 152q-57 108 -162 108h-195 q-106 0 -162 -108q67 -130 86 -130q-146 -452 -205 -487h-22q-152 441 -152 465q0 44 76 119v22q0 87 -108 108h-281q-141 -8 -141 -43v-22z" />
<glyph unicode="X" horiz-adv-x="1654" d="M-17 35q11 0 11 -21h108q367 0 367 54q276 421 292 421l97 -97q259 -389 335 -389h454q21 0 21 22v32q-97 19 -97 32q-170 0 -594 573q262 362 529 648q-29 119 -119 119h-226q-179 0 -227 -86q86 -92 86 -108q0 -44 -227 -368h-11q-27 0 -205 378q97 79 97 98 q-56 75 -118 75h-346q-60 0 -162 -21v-22q57 -68 151 -108q205 -322 303 -594q0 -25 -11 -43l-292 -497q-216 -63 -216 -98z" />
<glyph unicode="Y" horiz-adv-x="1512" d="M-49 1376q15 -32 186 -88l343 -716q0 -404 -78 -519q44 -29 68 -29q535 -20 647 -20l59 10v10q-51 66 -176 147q-167 80 -167 254v177q118 157 118 176q289 461 382 520q164 59 186 98v29l-68 10h-373l-49 -10q-328 -571 -362 -588q-18 5 -255 480q0 108 -412 108 l-49 -10v-39z" />
<glyph unicode="Z" horiz-adv-x="1519" d="M49 1171q17 -207 69 -207h17q205 181 431 181h301v-26q-155 -207 -680 -826q-104 -82 -104 -95q33 -58 95 -77l43 8q474 0 947 -129q82 0 379 387q0 33 -103 52q-147 -77 -741 -77h-17q-15 0 -17 17v8q260 321 301 353q261 327 276 327h77v43q-17 248 -34 319h-1059 q-101 0 -181 -258z" />
<glyph unicode="[" horiz-adv-x="758" />
<glyph unicode="\" horiz-adv-x="569" />
<glyph unicode="]" horiz-adv-x="758" />
<glyph unicode="^" />
<glyph unicode="_" horiz-adv-x="1024" />
<glyph unicode="`" horiz-adv-x="1024" />
<glyph unicode="a" horiz-adv-x="1613" d="M-33 15q24 0 43 -11v11q523 18 523 53q106 381 138 459q91 0 321 11q34 0 138 -331q0 -128 182 -128h267l21 10q0 83 -96 171q-134 206 -438 939q-64 224 -138 224h-43q-189 0 -470 -10l-21 -11q117 -80 117 -171v-21q0 -152 -74 -395q0 -139 -139 -139q-168 0 -214 -192 v-10q32 0 214 42h21v-64q0 -155 -96 -224q-256 -72 -256 -213zM714 708q0 24 85 363h32q97 -307 118 -341q0 -22 -21 -22h-214z" />
<glyph unicode="b" horiz-adv-x="1379" d="M27 24v29q10 31 217 129l10 49v957q0 102 -168 148l-39 50v29l69 10h128q212 0 395 10q465 0 612 -316q0 -19 19 -69q0 -136 -197 -296h-10v-30q169 -59 277 -256q6 -79 19 -79q-49 -178 -237 -296q-177 -89 -296 -89h-385q-142 0 -384 10q-20 10 -30 10zM570 1267 q0 -464 39 -464h79q177 0 217 247q0 172 -315 227q-20 0 -20 -10zM590 162h19q356 38 356 247v9q-73 208 -208 208h-138q-10 -77 -29 -464z" />
<glyph unicode="c" horiz-adv-x="1330" d="M52 789q25 -226 39 -226q0 -200 266 -414q106 -128 808 -128q59 0 59 59v364q-67 10 -89 20q-7 0 -79 -29q0 -114 -118 -119h-39q-22 0 -40 10q-17 -10 -39 -10q-335 45 -335 414v10q0 423 365 423q64 -10 128 -10h49q12 0 88 -98h50q69 0 69 88v197q0 89 -69 89h-266 q-266 0 -522 -108q-325 -229 -325 -532z" />
<glyph unicode="d" horiz-adv-x="1589" d="M44 1371q19 -56 155 -144q110 0 110 -232v-33q0 -227 11 -619v-11q-221 -172 -265 -299q0 -22 22 -22h254q691 0 863 99q353 230 353 575v100q0 74 -55 232q-243 409 -497 409h-675l-132 -11q0 11 -45 11q-99 0 -99 -55zM685 1183v11h11q69 0 199 -44q221 -122 221 -509 q-96 -376 -254 -376h-122q-35 0 -44 376q11 0 11 11q-22 213 -22 531z" />
<glyph unicode="e" horiz-adv-x="1221" d="M64 1310q10 0 10 -10q122 -120 122 -244q0 -10 -10 -31q10 -68 10 -111v-448l-10 -20q10 0 10 -10v-20q0 -23 -10 -41q-51 -10 -51 -61v-213q0 -92 71 -92h346q139 0 366 -10q20 10 30 10q89 0 203 356v10q0 15 -40 31q-46 0 -143 -102q-188 -10 -274 -10h-51 q-81 0 -81 61v233h213l21 -10q40 0 172 153v30q-81 92 -132 92h-244q-40 25 -40 40v183q0 26 61 31h81q74 0 386 -315q41 20 41 61l-31 284q0 71 11 265l-41 30h-10q-132 -61 -163 -61h-620l-51 10q-147 -13 -152 -71z" />
<glyph unicode="f" horiz-adv-x="1335" d="M78 64q27 -64 460 -64h300v21l-129 236v53q0 91 -10 289h64q115 0 278 -75h21q22 0 97 204q0 74 -139 74q-51 0 -107 -10q-67 10 -150 10h-43q-19 0 -21 22v246h224q137 0 225 -235h21q48 0 97 502q0 81 -33 86h-21q-120 -43 -310 -75q-56 11 -107 11h-54q-56 0 -96 -11 q-56 11 -107 11h-407l-53 -11v-11q171 -358 171 -385q0 -179 -21 -738q-150 -142 -150 -150z" />
<glyph unicode="g" horiz-adv-x="1407" d="M70 764q11 -231 33 -231q0 -267 176 -407q190 -121 374 -121q223 14 231 44q192 0 319 264h33q0 -143 66 -143t66 66v363q0 66 -66 66h-528q-77 0 -77 -77v-22q0 -30 22 -66q264 -80 264 -99v-11q-91 -143 -286 -143h-55q-176 0 -231 319v77q0 146 55 341q41 198 297 198 q63 0 132 -55l-22 -77v-11q77 -22 132 -22h110q55 0 132 22v55q-36 63 -77 88q0 203 -451 253h-11q-107 -22 -121 -22q-223 -44 -385 -242q-80 0 -132 -407z" />
<glyph unicode="h" horiz-adv-x="1628" d="M65 105q37 -94 168 -94h306l52 -11q29 24 43 95q-11 116 -11 200v337q0 21 95 31q113 -10 137 -21q18 11 42 11h63q21 0 21 -21v-442l-74 -85q53 -105 106 -105q58 11 94 11h295q106 0 148 105q-16 24 -95 74q-74 0 -74 600q0 205 21 389q116 90 116 169q0 84 -84 84 h-390q-73 0 -73 -84q0 -11 21 -242v-106l10 -73l-31 -21h-337q-19 0 -21 21v210q0 34 10 53q84 105 84 137v31q0 74 -73 74h-464q-71 0 -84 -84q0 -37 42 -106q105 0 105 -389v-21q0 -564 -63 -632q-105 -63 -105 -95z" />
<glyph unicode="i" horiz-adv-x="712" d="M54 79q0 -35 60 -60l272 70q46 0 151 -30q51 23 51 51l-71 423q0 616 81 866q-23 30 -61 30h-382l-51 -10v-40q81 -51 81 -444v-614z" />
<glyph unicode="j" horiz-adv-x="1264" d="M4 397q136 -396 543 -396q385 25 385 102q159 127 159 260l-11 68v646q0 31 22 68q114 87 114 135v80q0 56 -46 68q-277 11 -441 11h-204q-68 0 -68 -68v-23q0 -31 23 -68q203 0 203 -158q0 -155 12 -555q0 -201 -125 -272h-102q-17 0 -45 57q0 130 -227 283h-11 q-181 -116 -181 -215v-23z" />
<glyph unicode="k" horiz-adv-x="1514" d="M55 48q0 -17 58 -39l234 58h49q32 0 137 -19q29 0 39 39q-59 344 -59 380v20l166 -108q441 -302 487 -312h341l20 10q-146 176 -156 244q-285 129 -663 380v10q22 34 468 234q107 44 107 409v20q0 48 -39 58q-93 -75 -146 -195q-5 -44 -565 -292h-10v9q0 193 58 381 q-14 29 -29 29h-10q-85 0 -195 10l-48 -10l-59 10l-88 -10l-19 10l-29 -39q78 -81 78 -332v-682q-25 -85 -127 -254v-19z" />
<glyph unicode="l" horiz-adv-x="1145" d="M72 286q8 -31 55 -86q84 16 109 16h31q223 0 469 -109q160 -102 179 -102h24q27 0 46 94q34 158 180 445v15q0 43 -39 55l-62 -47q-108 -125 -172 -125h-266q-78 0 -78 86q8 102 8 164v422l63 70q164 119 164 187v8q0 39 -24 47h-23q-268 -94 -344 -94h-125 q-172 0 -172 -70v-16q102 -117 102 -171v-648q-125 -131 -125 -141z" />
<glyph unicode="m" horiz-adv-x="1818" d="M65 30l18 -26l88 9h248q66 0 71 35q-27 133 -44 381q8 0 8 9q-8 0 -8 8v169q0 37 -9 97q9 9 9 71v44h8q40 -64 239 -478q155 -354 186 -354q14 0 62 35q188 520 328 832h26q18 -97 18 -221v-354q0 -82 -62 -248l36 -26q52 0 407 9q17 0 17 17q0 29 -44 89q-97 37 -97 779 v177q0 66 97 203q89 62 89 107v8l-9 18q-191 9 -283 9h-204q-24 0 -133 -230q-197 -476 -239 -540h-17q-14 49 -80 177q-241 584 -292 584q-58 0 -89 -9q-49 9 -71 9q-42 0 -88 -9q-33 9 -80 9h-53l-26 -18v-8q124 -206 124 -337v-345q0 -396 -151 -682z" />
<glyph unicode="n" horiz-adv-x="1291" d="M77 1302l146 -300q0 -108 -16 -739q-122 -193 -122 -244v-8l33 -8q341 118 341 211v195q0 77 -17 211q0 14 17 16q253 -227 332 -333q104 -85 155 -268h24q187 114 187 260v293q0 263 8 698q-18 138 -73 138q-124 -33 -171 -33h-16q-26 0 -187 33q-56 -39 -56 -81 q0 -19 227 -195q8 -353 16 -382h-16q-284 296 -422 504q-25 162 -114 162h-146q-18 0 -33 -8q-58 -20 -97 -122z" />
<glyph unicode="o" horiz-adv-x="1146" d="M51 636q0 -29 8 -76q110 -548 422 -548q34 17 93 17q84 0 202 -9l43 17q261 405 261 650q0 88 -67 438q-104 304 -329 304q-137 0 -380 -152q-253 -339 -253 -641zM414 527q17 252 17 371q54 76 135 76h8q126 -38 126 -186v-143q0 -133 -160 -245q-126 95 -126 127z" />
<glyph unicode="p" horiz-adv-x="939" d="M92 72q0 -66 254 -66q180 0 180 57l-57 148v8l8 16q-8 0 -8 9v360q434 279 434 533q0 27 -16 98q-115 197 -262 197h-66q-231 -16 -287 -16q-114 0 -114 -58v-1147q-66 -68 -66 -131v-8zM477 899v263l41 8q131 -13 131 -58q-51 -213 -172 -213z" />
<glyph unicode="q" horiz-adv-x="1127" d="M101 456q0 -28 40 -103q257 -341 396 -341q70 0 214 71q8 0 48 -71q60 0 254 135q0 24 -95 159q55 127 55 301q0 196 -95 508q-228 317 -404 317q-40 0 -96 -16q-317 -178 -317 -444q8 -233 8 -270q-8 -207 -8 -246zM339 726v56q0 53 48 126q53 167 166 167q64 0 87 -87 q72 -24 88 -310q-8 -43 -8 -63v-8h-8l-24 16q-87 -101 -87 -143v-24q0 -4 16 -24v-15q-127 8 -127 31q-151 84 -151 278z" />
<glyph unicode="r" horiz-adv-x="1338" d="M90 156q28 -50 161 -50h272q38 0 80 40q0 33 -80 151q10 68 10 111v373l10 20h10q312 -705 433 -705h272q60 0 60 60v41q0 80 -70 120q-91 121 -161 121q-124 134 -252 393q221 216 221 332q0 191 -322 272q-89 0 -402 -10q-161 0 -161 -71v-1057q-66 -65 -81 -141z M533 881q10 0 10 10v292l50 10q151 -12 151 -50v-20q0 -55 -191 -272h-10q0 10 -10 30z" />
<glyph unicode="s" horiz-adv-x="1223" d="M74 1072q30 -131 30 -139q82 -317 565 -317q119 -60 119 -149v-79q-42 -159 -159 -159h-69q-60 35 -60 99q0 38 -198 159h-20q-168 -79 -168 -139v-20q0 -198 386 -307h228q382 0 437 268l-10 59v30q0 35 10 89q-20 50 -20 70q-122 257 -307 257h-90q-129 0 -178 20 q-179 60 -179 228v40q0 188 258 188q171 0 228 -79q0 -109 139 -109q99 116 99 198q-253 149 -317 149h-79q-273 0 -437 -79q-208 -134 -208 -278z" />
<glyph unicode="t" horiz-adv-x="1542" d="M47 1112q0 -115 50 -130h10q165 160 220 160h280l30 -20q0 -245 10 -380q-10 -130 -10 -360q0 -25 -10 -80q-150 -213 -160 -250q5 -28 50 -40q220 130 310 130q32 0 140 -20q35 0 60 60q-110 112 -110 310q10 546 10 650l50 10h90q257 0 380 -160h10l30 120v10 q-22 300 -140 300h-120q-92 0 -170 10q-53 -10 -120 -10q-52 0 -90 10q-55 -10 -80 -10q-152 0 -470 10l-70 -10q-17 10 -40 10h-10q-103 -33 -130 -260v-60z" />
<glyph unicode="u" horiz-adv-x="1353" d="M74 1375q87 -66 87 -283q-14 -454 -22 -565q14 -125 33 -173q190 -315 402 -315l260 86q0 -81 87 -119q239 130 272 163q-11 274 -11 434v402q0 84 76 228v120q0 24 -11 43q0 11 -141 11q-304 0 -304 -174v-228q0 -211 22 -369q0 -247 -131 -326h-54q-109 0 -109 315 q0 27 11 163q-11 187 -11 304q0 11 11 33q-11 0 -11 11v97q131 106 131 120q0 49 -489 76q0 -14 -98 -22v-32z" />
<glyph unicode="v" horiz-adv-x="1447" d="M-19 1351l75 -85q88 0 309 -618q160 -581 245 -640q53 0 107 85q495 896 703 1173q-13 160 -117 160h-235q-162 0 -213 -96q0 -43 86 -139v-10q-46 -190 -224 -469h-32q-128 304 -182 469v10q96 104 96 118q-37 106 -117 106h-341q-160 0 -160 -42v-22z" />
<glyph unicode="w" horiz-adv-x="2010" d="M-11 1363q68 -86 76 -86q67 -27 249 -595q159 -682 227 -682h32l422 833l422 -833h33q16 0 65 76q121 462 205 703q92 419 281 584v22q0 35 -140 43h-282q-86 0 -108 -108v-22q76 -81 76 -97q0 -51 -151 -487h-22q-87 100 -195 465q0 33 76 152q-57 108 -162 108h-195 q-106 0 -162 -108q67 -130 86 -130q-146 -452 -205 -487h-22q-152 441 -152 465q0 44 76 119v22q0 87 -108 108h-281q-141 -8 -141 -43v-22z" />
<glyph unicode="x" horiz-adv-x="1659" d="M-3 35q11 0 11 -21h108q367 0 367 54q276 421 292 421l97 -97q259 -389 335 -389h454q21 0 21 22v32q-97 19 -97 32q-170 0 -594 573q262 362 529 648q-29 119 -119 119h-226q-179 0 -227 -86q86 -92 86 -108q0 -44 -227 -368h-11q-27 0 -205 378q97 79 97 98 q-56 75 -118 75h-346q-60 0 -162 -21v-22q57 -68 151 -108q205 -322 303 -594q0 -25 -11 -43l-292 -497q-216 -63 -216 -98z" />
<glyph unicode="y" horiz-adv-x="1517" d="M-35 1376q15 -32 186 -88l343 -716q0 -404 -78 -519q44 -29 68 -29q535 -20 647 -20l59 10v10q-51 66 -176 147q-167 80 -167 254v177q118 157 118 176q289 461 382 520q164 59 186 98v29l-68 10h-373l-49 -10q-328 -571 -362 -588q-18 5 -255 480q0 108 -412 108 l-49 -10v-39z" />
<glyph unicode="z" horiz-adv-x="1524" d="M63 1171q17 -207 69 -207h17q205 181 431 181h301v-26q-155 -207 -680 -826q-104 -82 -104 -95q33 -58 95 -77l43 8q474 0 947 -129q82 0 379 387q0 33 -103 52q-147 -77 -741 -77h-17q-15 0 -17 17v8q260 321 301 353q261 327 276 327h77v43q-17 248 -34 319h-1059 q-101 0 -181 -258z" />
<glyph unicode="{" />
<glyph unicode="|" />
<glyph unicode="}" />
<glyph unicode="~" />
<glyph unicode="&#xa1;" horiz-adv-x="672" />
<glyph unicode="&#xa2;" horiz-adv-x="1139" />
<glyph unicode="&#xa3;" />
<glyph unicode="&#xa4;" />
<glyph unicode="&#xa5;" horiz-adv-x="1262" />
<glyph unicode="&#xa6;" />
<glyph unicode="&#xa7;" />
<glyph unicode="&#xa8;" horiz-adv-x="1024" />
<glyph unicode="&#xa9;" horiz-adv-x="1674" />
<glyph unicode="&#xaa;" horiz-adv-x="648" />
<glyph unicode="&#xab;" horiz-adv-x="944" />
<glyph unicode="&#xac;" />
<glyph unicode="&#xad;" horiz-adv-x="670" />
<glyph unicode="&#xae;" horiz-adv-x="1674" />
<glyph unicode="&#xaf;" horiz-adv-x="670" />
<glyph unicode="&#xb0;" horiz-adv-x="674" />
<glyph unicode="&#xb1;" />
<glyph unicode="&#xb2;" />
<glyph unicode="&#xb3;" />
<glyph unicode="&#xb4;" horiz-adv-x="1024" />
<glyph unicode="&#xb5;" horiz-adv-x="1180" />
<glyph unicode="&#xb6;" horiz-adv-x="1024" />
<glyph unicode="&#xb7;" horiz-adv-x="508" />
<glyph unicode="&#xb8;" horiz-adv-x="1024" />
<glyph unicode="&#xb9;" />
<glyph unicode="&#xba;" horiz-adv-x="718" />
<glyph unicode="&#xbb;" horiz-adv-x="944" />
<glyph unicode="&#xbc;" horiz-adv-x="1708" />
<glyph unicode="&#xbd;" horiz-adv-x="1964" />
<glyph unicode="&#xbe;" horiz-adv-x="1708" />
<glyph unicode="&#xbf;" horiz-adv-x="748" />
<glyph unicode="&#xc0;" horiz-adv-x="1540" />
<glyph unicode="&#xc1;" horiz-adv-x="1540" />
<glyph unicode="&#xc2;" horiz-adv-x="1540" />
<glyph unicode="&#xc3;" horiz-adv-x="1540" />
<glyph unicode="&#xc4;" horiz-adv-x="1540" />
<glyph unicode="&#xc5;" horiz-adv-x="1540" />
<glyph unicode="&#xc6;" horiz-adv-x="2118" />
<glyph unicode="&#xc7;" horiz-adv-x="1399" />
<glyph unicode="&#xc8;" horiz-adv-x="1151" />
<glyph unicode="&#xc9;" horiz-adv-x="1151" />
<glyph unicode="&#xca;" horiz-adv-x="1151" />
<glyph unicode="&#xcb;" horiz-adv-x="1151" />
<glyph unicode="&#xcc;" horiz-adv-x="657" />
<glyph unicode="&#xcd;" horiz-adv-x="657" />
<glyph unicode="&#xce;" horiz-adv-x="657" />
<glyph unicode="&#xcf;" horiz-adv-x="657" />
<glyph unicode="&#xd0;" horiz-adv-x="1518" />
<glyph unicode="&#xd1;" horiz-adv-x="1554" />
<glyph unicode="&#xd2;" horiz-adv-x="1614" />
<glyph unicode="&#xd3;" horiz-adv-x="1614" />
<glyph unicode="&#xd4;" horiz-adv-x="1614" />
<glyph unicode="&#xd5;" horiz-adv-x="1614" />
<glyph unicode="&#xd6;" horiz-adv-x="1614" />
<glyph unicode="&#xd7;" />
<glyph unicode="&#xd8;" horiz-adv-x="1614" />
<glyph unicode="&#xd9;" horiz-adv-x="1501" />
<glyph unicode="&#xda;" horiz-adv-x="1501" />
<glyph unicode="&#xdb;" horiz-adv-x="1501" />
<glyph unicode="&#xdc;" horiz-adv-x="1501" />
<glyph unicode="&#xdd;" horiz-adv-x="1233" />
<glyph unicode="&#xde;" horiz-adv-x="1120" />
<glyph unicode="&#xdf;" horiz-adv-x="1251" />
<glyph unicode="&#xe0;" horiz-adv-x="922" />
<glyph unicode="&#xe1;" horiz-adv-x="922" />
<glyph unicode="&#xe2;" horiz-adv-x="922" />
<glyph unicode="&#xe3;" horiz-adv-x="922" />
<glyph unicode="&#xe4;" horiz-adv-x="922" />
<glyph unicode="&#xe5;" horiz-adv-x="922" />
<glyph unicode="&#xe6;" horiz-adv-x="1454" />
<glyph unicode="&#xe7;" horiz-adv-x="905" />
<glyph unicode="&#xe8;" horiz-adv-x="909" />
<glyph unicode="&#xe9;" horiz-adv-x="909" />
<glyph unicode="&#xea;" horiz-adv-x="909" />
<glyph unicode="&#xeb;" horiz-adv-x="909" />
<glyph unicode="&#xec;" horiz-adv-x="514" />
<glyph unicode="&#xed;" horiz-adv-x="514" />
<glyph unicode="&#xee;" horiz-adv-x="514" />
<glyph unicode="&#xef;" horiz-adv-x="514" />
<glyph unicode="&#xf0;" horiz-adv-x="1139" />
<glyph unicode="&#xf1;" horiz-adv-x="1108" />
<glyph unicode="&#xf2;" horiz-adv-x="1010" />
<glyph unicode="&#xf3;" horiz-adv-x="1010" />
<glyph unicode="&#xf4;" horiz-adv-x="1010" />
<glyph unicode="&#xf5;" horiz-adv-x="1010" />
<glyph unicode="&#xf6;" horiz-adv-x="1010" />
<glyph unicode="&#xf7;" />
<glyph unicode="&#xf8;" horiz-adv-x="1010" />
<glyph unicode="&#xf9;" horiz-adv-x="1059" />
<glyph unicode="&#xfa;" horiz-adv-x="1059" />
<glyph unicode="&#xfb;" horiz-adv-x="1059" />
<glyph unicode="&#xfc;" horiz-adv-x="1059" />
<glyph unicode="&#xfd;" horiz-adv-x="868" />
<glyph unicode="&#xfe;" horiz-adv-x="1010" />
<glyph unicode="&#xff;" horiz-adv-x="868" />
<glyph unicode="&#x2c6;" horiz-adv-x="1024" />
<glyph unicode="&#x2dc;" horiz-adv-x="1024" />
<glyph unicode="&#x2000;" horiz-adv-x="812" />
<glyph unicode="&#x2001;" horiz-adv-x="1624" />
<glyph unicode="&#x2002;" horiz-adv-x="812" />
<glyph unicode="&#x2003;" horiz-adv-x="1624" />
<glyph unicode="&#x2004;" horiz-adv-x="541" />
<glyph unicode="&#x2005;" horiz-adv-x="406" />
<glyph unicode="&#x2006;" horiz-adv-x="270" />
<glyph unicode="&#x2007;" horiz-adv-x="270" />
<glyph unicode="&#x2008;" horiz-adv-x="203" />
<glyph unicode="&#x2009;" horiz-adv-x="324" />
<glyph unicode="&#x200a;" horiz-adv-x="90" />
<glyph unicode="&#x2010;" horiz-adv-x="670" />
<glyph unicode="&#x2011;" horiz-adv-x="670" />
<glyph unicode="&#x2012;" horiz-adv-x="670" />
<glyph unicode="&#x2013;" horiz-adv-x="1108" />
<glyph unicode="&#x2014;" horiz-adv-x="2048" />
<glyph unicode="&#x2018;" horiz-adv-x="557" />
<glyph unicode="&#x2019;" horiz-adv-x="557" />
<glyph unicode="&#x201a;" horiz-adv-x="557" />
<glyph unicode="&#x201c;" horiz-adv-x="910" />
<glyph unicode="&#x201d;" horiz-adv-x="910" />
<glyph unicode="&#x201e;" horiz-adv-x="910" />
<glyph unicode="&#x2022;" horiz-adv-x="1024" />
<glyph unicode="&#x2026;" horiz-adv-x="2048" />
<glyph unicode="&#x202f;" horiz-adv-x="324" />
<glyph unicode="&#x2039;" horiz-adv-x="631" />
<glyph unicode="&#x203a;" horiz-adv-x="631" />
<glyph unicode="&#x205f;" horiz-adv-x="406" />
<glyph unicode="&#x20ac;" />
<glyph unicode="&#x2122;" horiz-adv-x="1497" />
<glyph unicode="&#x25fc;" horiz-adv-x="1430" d="M0 0v1430h1430v-1430h-1430z" />
</font>
</defs>
</svg>
